<?xml version="1.0" encoding="utf-8"?>
<!-- Generator: Adobe Illustrator 12.0.0, SVG Export Plug-In . SVG Version: 6.00 Build 51448)  -->
<!DOCTYPE svg PUBLIC "-//W3C//DTD SVG 1.1//EN" "http://www.w3.org/Graphics/SVG/1.1/DTD/svg11.dtd" [
	<!ENTITY ns_svg "http://www.w3.org/2000/svg">
	<!ENTITY ns_xlink "http://www.w3.org/1999/xlink">
]>
<svg  version="1.1" xmlns="&ns_svg;"  width="500.5" height="200" viewBox="0 0 500.5 200"
	 overflow="visible" enable-background="new 0 0 500.5 200" xml:space="preserve">
<g id="Layer_2">
</g>
<g id="Layer_1">
	<rect fill="#9755BB" width="500.5" height="200"/>
</g>
<g id="Layer_5">
	<path fill="#8A3EB2" d="M301.408,41.104l50.093,33.173v104.723h-90.836L147.712,64.886c0,0,56.138-42.97,92.223-42.97
		C276.018,21.916,301.408,41.104,301.408,41.104z"/>
</g>
<g id="Layer_4">
	<g>
		<path fill="#FFFFFF" d="M329.965,68.703c-0.477-0.508-11.854-12.588-28.688-24.85c-22.778-16.592-43.597-25.006-61.878-25.006
			c-18.289,0-38.942,8.418-61.386,25.019c-16.584,12.268-27.716,24.354-28.181,24.862l-2.119,2.313l2.119,2.313
			c0.465,0.509,11.597,12.595,28.181,24.864c22.444,16.6,43.097,25.019,61.386,25.019c18.281,0,39.1-8.413,61.878-25.008
			c16.835-12.262,28.212-24.34,28.688-24.849l2.19-2.34L329.965,68.703z M202.17,71.043C202.17,47.86,219.101,29,239.909,29
			c20.81,0,37.739,18.86,37.739,42.042c0,23.182-16.93,42.04-37.739,42.04C219.101,113.083,202.17,94.225,202.17,71.043z
			 M156.128,71.04c7.583-7.684,33.496-32.383,61.886-41.913c-12.938,8.421-21.656,24.052-21.656,41.916
			c0,17.858,8.711,33.48,21.642,41.903C189.629,103.41,163.713,78.721,156.128,71.04z M262.813,112.284
			c12.383-8.564,20.648-23.846,20.648-41.241c0-17.391-8.261-32.668-20.637-41.235c27.805,9.97,53.211,33.697,60.815,41.234
			C316.037,78.584,290.635,102.32,262.813,112.284z"/>
		<ellipse fill="#FFFFFF" cx="239.934" cy="71.042" rx="22.236" ry="24.771"/>
	</g>
</g>
</svg>
