<?xml version="1.0" encoding="utf-8"?>
<!-- Generator: Adobe Illustrator 12.0.0, SVG Export Plug-In . SVG Version: 6.00 Build 51448)  -->
<!DOCTYPE svg PUBLIC "-//W3C//DTD SVG 1.1//EN" "http://www.w3.org/Graphics/SVG/1.1/DTD/svg11.dtd" [
	<!ENTITY ns_svg "http://www.w3.org/2000/svg">
	<!ENTITY ns_xlink "http://www.w3.org/1999/xlink">
]>
<svg  version="1.1" xmlns="&ns_svg;"  width="500" height="200" viewBox="0 0 500 200"
	 overflow="visible" enable-background="new 0 0 500 200" xml:space="preserve">
<g id="Layer_2">
</g>
<g id="Layer_1">
	<rect fill="#72AAE6" width="500" height="200"/>
</g>
<g id="Layer_5">
	<polygon fill="#467DBD" points="314.687,8.612 343.5,46.777 343.5,191.5 245.784,191.5 152.683,82.813 216.184,15.636 
		224.487,19.214 224.487,8.612 	"/>
</g>
<g id="Layer_4">
	<g>
		<polygon fill="#FFFFFF" points="314.687,8.612 224.487,8.612 224.487,18.372 232.003,26.332 232.003,16.564 307.17,16.564 
			307.17,76.201 279.921,76.201 285.327,82.407 265.345,104.032 314.687,104.032 		"/>
		<g>
			<path fill="#FFFFFF" d="M216.184,15.636l-63.501,67.177l63.501,67.176l63.501-67.176L216.184,15.636z M203.55,125.37
				l-40.229-42.557l53.195-56.274l40.228,42.558L203.55,125.37z"/>
		</g>
	</g>
</g>
	<text id="orderTxt" x="370" y="190" fill="white" font-size="36" font="" transform="rotate(270,370,190)">FLIP</text>

</svg>
