<?xml version="1.0" encoding="utf-8"?>
<!-- Generator: Adobe Illustrator 12.0.0, SVG Export Plug-In . SVG Version: 6.00 Build 51448)  -->
<!DOCTYPE svg PUBLIC "-//W3C//DTD SVG 1.1//EN" "http://www.w3.org/Graphics/SVG/1.1/DTD/svg11.dtd" [
	<!ENTITY ns_svg "http://www.w3.org/2000/svg">
	<!ENTITY ns_xlink "http://www.w3.org/1999/xlink">
]>
<svg  version="1.1" xmlns="&ns_svg;"  width="500.5" height="200.333" viewBox="0 0 500.5 200.333"
	 overflow="visible" enable-background="new 0 0 500.5 200.333" xml:space="preserve">
<g id="Layer_2">
</g>
<g id="Layer_1">
	<rect fill="#6097C7" width="500.5" height="200.333"/>
	<!--9755BB-->
</g>
<g id="Layer_5">
	<path fill="#4A759B" d="M298.643,6.61l46.856,66.462v119.04H237.846l-64.577-75.765c0,0-15.508-43.11,9.874-77.075
		s70.893-21.772,89.274-3.484L298.643,6.61z"/>
	<!--8A3EB2-->
</g>
<g id="Layer_4">
	<g>
		<path fill="#FFFFFF" d="M230.411,124.452c-26.359,0-47.803-21.34-47.803-47.568c0-26.23,21.444-47.571,47.803-47.571
			c11.307,0,21.68,3.955,29.863,10.516l-23.698,20.396l62.422,9.169L298.876,6.61l-21.921,18.865
			c-12.327-11.062-28.639-17.807-46.544-17.807c-38.414,0-69.555,30.991-69.555,69.215s31.142,69.211,69.555,69.211
			c30.131,0,55.782-19.064,65.448-45.729l-22.233-3.269C265.968,113.233,249.501,124.452,230.411,124.452z"/>
		<ellipse fill="#FFFFFF" cx="229.926" cy="76.353" rx="8.388" ry="8.347"/>
	</g>
</g>
	<text id="orderTxt" x="370" y="190" fill="white" font-size="36" font="" transform="rotate(270,370,190)">ROTATE</text>

</svg>
